# xmcd
#
# Track frame offsets:
# 150
# 13199
# 24575
# 33122
# 44315
# 55383
# 68847
# 79813
# 88187
# 98232
# 109986
# 120739
# 134260
# 144989
# 159278
# 170726
# 182225
# 193669
# 205013
# 216204
# 228416
# 240107
# 250145
# 263106
# 273551
# 285279
# 297499
# 308475
# 321042
# 332553
# 344199
#
# Disc length: 4735 seconds
#
# Revision: 0
# Processed by: cddbd v1.4PL0 Copyright (c) Steve Scherf et al.
# Submitted via: Axialis_AX_CDPlayer 2.6
#
DISCID=c6127d1f
DTITLE=Willie Nelson - The complete Liberty recordings plus more, CD 2
DYEAR=1900
DGENRE=
TTITLE0=How long is forever
TTITLE1=You took my happy away
TTITLE2=Roly poly
TTITLE3=Half a man
TTITLE4=Lonley little mansion
TTITLE5=Last letter
TTITLE6=Second fiddle
TTITLE7=Take my word
TTITLE8=Right or wrong
TTITLE9=Feel it a memory
TTITLE10=Let me talk to you
TTITLE11=Way you see me
TTITLE12=Things I might have
TTITLE13=Home motel
TTITLE14=Opportunity to cry
TTITLE15=You took my happy away
TTITLE16=I hope
TTITLE17=River boy
TTITLE18=At the bottom
TTITLE19=Cold war with you
TTITLE20=Seasons of my heart
TTITLE21=Blue must have been
TTITLE22=Am I blue
TTITLE23=There'll be no teardrops
TTITLE24=Take me as I am or leave me alone
TTITLE25=Tomorrow night
TTITLE26=I'll walk alone
TTITLE27=You wouldn't ever cross
TTITLE28=I hope so
TTITLE29=River boy
TTITLE30=At the bottom
EXTD=
EXTT0=
EXTT1=
EXTT2=
EXTT3=
EXTT4=
EXTT5=
EXTT6=
EXTT7=
EXTT8=
EXTT9=
EXTT10=
EXTT11=
EXTT12=
EXTT13=
EXTT14=
EXTT15=
EXTT16=
EXTT17=
EXTT18=
EXTT19=
EXTT20=
EXTT21=
EXTT22=
EXTT23=
EXTT24=
EXTT25=
EXTT26=
EXTT27=
EXTT28=
EXTT29=
EXTT30=
PLAYORDER=
